<svg xmlns="http://www.w3.org/2000/svg" viewBox="0 0 520 148" role="img" aria-labelledby="logoTitle logoDesc">
  <title id="logoTitle">Blackshaws Road Pharmacy</title>
  <desc id="logoDesc">Blackshaws Road Pharmacy logo with mortar and pestle icon and established 1968 badge.</desc>
  <defs>
    <linearGradient id="crossRed" x1="0" y1="0" x2="1" y2="1">
      <stop offset="0%" stop-color="#d85140"/>
      <stop offset="100%" stop-color="#c0392b"/>
    </linearGradient>
  </defs>
  <g transform="translate(8 18)">
    <rect x="0" y="0" width="100" height="100" rx="28" fill="#f6f4ef" stroke="#e4e7ef"/>
    <path d="M20 52c2.5 15.5 13.2 29 28 34.6V96c0 4.4 3.6 8 8 8h8c4.4 0 8-3.6 8-8v-9.4c14.8-5.6 25.5-19.1 28-34.6H20Z" fill="none" stroke="#1b2a6b" stroke-width="5" stroke-linecap="round" stroke-linejoin="round"/>
    <path d="M38 44h44" fill="none" stroke="#1b2a6b" stroke-width="5" stroke-linecap="round"/>
    <path d="M64 20c4.6 0 8.5 3.6 8.9 8.2L75 54" fill="none" stroke="#1b2a6b" stroke-width="5" stroke-linecap="round"/>
    <circle cx="65" cy="18" r="7" fill="#1b2a6b"/>
    <path d="M50 32h22" fill="none" stroke="url(#crossRed)" stroke-width="6" stroke-linecap="round"/>
    <path d="M61 21v22" fill="none" stroke="url(#crossRed)" stroke-width="6" stroke-linecap="round"/>
  </g>
  <g transform="translate(128 20)">
    <text x="0" y="40" fill="#1b2a6b" font-size="34" font-family="Georgia, 'Times New Roman', serif" font-style="italic">Blackshaws Road</text>
    <text x="0" y="82" fill="#1b2a6b" font-size="46" font-weight="800" letter-spacing="2.4" font-family="Inter, Arial, Helvetica, sans-serif">PHARMACY</text>
    <g transform="translate(2 98)">
      <rect width="102" height="28" rx="14" fill="#1b2a6b"/>
      <text x="51" y="18.5" text-anchor="middle" fill="#ffffff" font-size="12" font-weight="700" letter-spacing="1.5" font-family="Inter, Arial, Helvetica, sans-serif">EST. 1968</text>
    </g>
  </g>
</svg>
