<svg xmlns="http://www.w3.org/2000/svg" viewBox="0 0 128 128" role="img" aria-labelledby="markTitle markDesc">
  <title id="markTitle">Blackshaws Road Pharmacy mark</title>
  <desc id="markDesc">Mortar and pestle pharmacy icon with red medical cross.</desc>
  <defs>
    <linearGradient id="markBg" x1="0" y1="0" x2="1" y2="1">
      <stop offset="0%" stop-color="#fffdfa"/>
      <stop offset="100%" stop-color="#f2efe9"/>
    </linearGradient>
    <linearGradient id="markRed" x1="0" y1="0" x2="1" y2="1">
      <stop offset="0%" stop-color="#d85140"/>
      <stop offset="100%" stop-color="#c0392b"/>
    </linearGradient>
  </defs>
  <rect width="128" height="128" rx="34" fill="url(#markBg)"/>
  <rect x="1" y="1" width="126" height="126" rx="33" fill="none" stroke="#dfe4ef"/>
  <path d="M26 67c3.3 19.4 16.7 36.3 35 43.3V120c0 5.5 4.5 10 10 10h10c5.5 0 10-4.5 10-10v-9.7c18.3-7 31.7-23.9 35-43.3H26Z" fill="none" stroke="#1b2a6b" stroke-width="6" stroke-linecap="round" stroke-linejoin="round"/>
  <path d="M48 57h32" fill="none" stroke="#1b2a6b" stroke-width="6" stroke-linecap="round"/>
  <path d="M74 26c5.5 0 10.1 4.3 10.7 9.9L87 69" fill="none" stroke="#1b2a6b" stroke-width="6" stroke-linecap="round"/>
  <circle cx="75" cy="24" r="8" fill="#1b2a6b"/>
  <path d="M57 42h22" fill="none" stroke="url(#markRed)" stroke-width="8" stroke-linecap="round"/>
  <path d="M68 31v22" fill="none" stroke="url(#markRed)" stroke-width="8" stroke-linecap="round"/>
</svg>
